<mxfile host="app.diagrams.net" agent="Mozilla/5.0 (Windows NT 10.0; Win64; x64) AppleWebKit/537.36 (KHTML, like Gecko) Chrome/130.0.0.0 Safari/537.36" version="24.8.4">
  <diagram name="Page-1" id="UIv36l2mWd346YbS5Nf6">
    <mxGraphModel dx="1050" dy="522" grid="1" gridSize="10" guides="1" tooltips="1" connect="1" arrows="1" fold="1" page="1" pageScale="1" pageWidth="850" pageHeight="1100" math="0" shadow="0">
      <root>
        <mxCell id="0" />
        <mxCell id="1" parent="0" />
        <mxCell id="wyyreSNqi4UNeEEnbctz-1" value="Bus System" style="shape=umlActor;verticalLabelPosition=bottom;verticalAlign=top;html=1;outlineConnect=0;" vertex="1" parent="1">
          <mxGeometry x="60" y="290" width="30" height="60" as="geometry" />
        </mxCell>
        <mxCell id="wyyreSNqi4UNeEEnbctz-4" value="Autobus UM" style="rounded=0;whiteSpace=wrap;html=1;align=center;horizontal=1;verticalAlign=top;" vertex="1" parent="1">
          <mxGeometry x="160" y="10" width="530" height="620" as="geometry" />
        </mxCell>
        <mxCell id="wyyreSNqi4UNeEEnbctz-5" value="Autonomous Driving System" style="swimlane;whiteSpace=wrap;html=1;" vertex="1" parent="1">
          <mxGeometry x="190" y="79" width="190" height="171" as="geometry" />
        </mxCell>
        <mxCell id="wyyreSNqi4UNeEEnbctz-6" value="&lt;font style=&quot;font-size: 10px;&quot;&gt;UC-1 calculate path&lt;/font&gt;" style="ellipse;whiteSpace=wrap;html=1;" vertex="1" parent="wyyreSNqi4UNeEEnbctz-5">
          <mxGeometry x="40" y="31" width="90" height="49" as="geometry" />
        </mxCell>
        <mxCell id="wyyreSNqi4UNeEEnbctz-7" value="&lt;font style=&quot;font-size: 10px;&quot;&gt;UC-2 drive&lt;/font&gt;" style="ellipse;whiteSpace=wrap;html=1;" vertex="1" parent="1">
          <mxGeometry x="230" y="169.5" width="90" height="49" as="geometry" />
        </mxCell>
        <mxCell id="wyyreSNqi4UNeEEnbctz-10" value="" style="endArrow=none;html=1;rounded=0;exitX=1;exitY=0.3333333333333333;exitDx=0;exitDy=0;exitPerimeter=0;entryX=0;entryY=0.5;entryDx=0;entryDy=0;" edge="1" parent="1" source="wyyreSNqi4UNeEEnbctz-1" target="wyyreSNqi4UNeEEnbctz-6">
          <mxGeometry width="50" height="50" relative="1" as="geometry">
            <mxPoint x="180" y="220" as="sourcePoint" />
            <mxPoint x="230" y="170" as="targetPoint" />
          </mxGeometry>
        </mxCell>
        <mxCell id="wyyreSNqi4UNeEEnbctz-11" value="" style="endArrow=none;html=1;rounded=0;entryX=0;entryY=0.5;entryDx=0;entryDy=0;exitX=1;exitY=0.3333333333333333;exitDx=0;exitDy=0;exitPerimeter=0;" edge="1" parent="1" source="wyyreSNqi4UNeEEnbctz-1" target="wyyreSNqi4UNeEEnbctz-7">
          <mxGeometry width="50" height="50" relative="1" as="geometry">
            <mxPoint x="130" y="150" as="sourcePoint" />
            <mxPoint x="220" y="160" as="targetPoint" />
          </mxGeometry>
        </mxCell>
        <mxCell id="wyyreSNqi4UNeEEnbctz-12" value="Weather/External Environment Adaption Module" style="swimlane;whiteSpace=wrap;html=1;" vertex="1" parent="1">
          <mxGeometry x="190" y="280" width="345" height="171" as="geometry" />
        </mxCell>
      </root>
    </mxGraphModel>
  </diagram>
</mxfile>
